# xmcd
#
# Track frame offsets: 
#        150
#        21317
#        41492
#        59467
#        85207
#        104547
#        131102
#        161095
#        188717
#        207887
#        234385
#        251970
#        273257
#        290885
#
# Disc length: 4158 seconds
#
# Revision: 6
# Processed by: cddbd v1.5.1PL2 Copyright (c) Steve Scherf et al.
# Submitted via: ExactAudioCopy v0.95b3
#
DISCID=d4103c0e
DTITLE=???? - LIFE Disc 2
DYEAR=1996
DGENRE=New Age
TTITLE0=???????
TTITLE1=????????????
TTITLE2=I?m In Love
TTITLE3=???????
TTITLE4=?????89
TTITLE5=??
TTITLE6=?????
TTITLE7=????
TTITLE8=???????
TTITLE9=?????
TTITLE10=?????????????
TTITLE11=?????
TTITLE12=???
TTITLE13=???????
EXTD=YEAR: 1996
EXTT0=
EXTT1=
EXTT2=
EXTT3=
EXTT4=
EXTT5=
EXTT6=
EXTT7=
EXTT8=
EXTT9=
EXTT10=
EXTT11=
EXTT12=
EXTT13=
PLAYORDER=
